<svg xmlns="http://www.w3.org/2000/svg" viewBox="0 0 520 920" role="img" aria-labelledby="title desc">
  <title id="title">Tattoo Apple T-PANTHENOL</title>
  <desc id="desc">Modello 2D del prodotto nero Tattoo Apple T-PANTHENOL aftertattoo care.</desc>
  <defs>
    <linearGradient id="tube" x1="128" x2="395" y1="82" y2="822" gradientUnits="userSpaceOnUse">
      <stop offset="0" stop-color="#222"/>
      <stop offset=".45" stop-color="#070707"/>
      <stop offset="1" stop-color="#161616"/>
    </linearGradient>
    <linearGradient id="cap" x1="148" x2="378" y1="42" y2="190" gradientUnits="userSpaceOnUse">
      <stop offset="0" stop-color="#414141"/>
      <stop offset=".55" stop-color="#171717"/>
      <stop offset="1" stop-color="#070707"/>
    </linearGradient>
    <filter id="shadow" x="-30%" y="-10%" width="160%" height="130%">
      <feDropShadow dx="0" dy="30" stdDeviation="22" flood-color="#000" flood-opacity=".42"/>
    </filter>
  </defs>
  <rect width="520" height="920" fill="none"/>
  <g filter="url(#shadow)">
    <rect x="132" y="62" width="256" height="190" rx="44" fill="url(#cap)"/>
    <rect x="126" y="222" width="268" height="610" rx="48" fill="url(#tube)"/>
    <rect x="150" y="206" width="220" height="44" rx="16" fill="#282828"/>
    <path d="M337 252c36 128 34 388-8 535" fill="none" stroke="#fff" stroke-width="36" stroke-linecap="round" opacity=".08"/>
  </g>
  <g fill="#fff">
    <circle cx="260" cy="346" r="34"/>
    <rect x="202" y="392" width="116" height="162" rx="40"/>
    <rect x="166" y="432" width="43" height="138" rx="21.5"/>
    <rect x="312" y="432" width="43" height="138" rx="21.5"/>
  </g>
  <g fill="none" stroke="#dfe8e5" stroke-width="6" opacity=".78">
    <path d="M303 405c22-32 58-12 43 25-12 27-43 47-43 47s-34-23-43-51c-10-33 28-44 43-21z"/>
    <path d="M287 470c30-8 54-28 70-58"/>
    <path d="M317 432c20 0 38-11 48-28"/>
  </g>
  <text x="260" y="617" text-anchor="middle" fill="#fff" font-family="Arial Black, Impact, sans-serif" font-size="58" font-weight="900" letter-spacing="-2">TATTOO</text>
  <text x="260" y="682" text-anchor="middle" fill="#fff" font-family="Georgia, serif" font-size="55" font-style="italic">Apple</text>
  <rect x="108" y="704" width="304" height="61" fill="none" stroke="#fff" stroke-width="6"/>
  <text x="260" y="747" text-anchor="middle" fill="#fff" font-family="Arial Black, Impact, sans-serif" font-size="36" font-weight="900" letter-spacing=".5">T-PANTHENOL</text>
  <text x="260" y="812" text-anchor="middle" fill="#fff" font-family="Arial, sans-serif" font-size="22" font-weight="700">CREMA AL PANTENOLO (5%)</text>
  <text x="260" y="844" text-anchor="middle" fill="#fff" font-family="Arial, sans-serif" font-size="22" font-weight="700">AFTERTATTOO CARE</text>
  <text x="260" y="876" text-anchor="middle" fill="#fff" font-family="Arial, sans-serif" font-size="22" font-weight="700">LENITIVA E PROTETTIVA</text>
</svg>
