<svg xmlns="http://www.w3.org/2000/svg" viewBox="0 0 520 920" role="img" aria-labelledby="title desc">
  <title id="title">Tattoo Apple T-FOAM</title>
  <desc id="desc">Modello 2D del prodotto nero Tattoo Apple T-FOAM mild cleansing mousse.</desc>
  <defs>
    <linearGradient id="blackBody" x1="126" x2="400" y1="210" y2="850" gradientUnits="userSpaceOnUse">
      <stop offset="0" stop-color="#151515"/>
      <stop offset=".42" stop-color="#050505"/>
      <stop offset="1" stop-color="#111"/>
    </linearGradient>
    <linearGradient id="clearCap" x1="145" x2="380" y1="35" y2="250" gradientUnits="userSpaceOnUse">
      <stop offset="0" stop-color="#ffffff" stop-opacity=".78"/>
      <stop offset=".42" stop-color="#dce3e4" stop-opacity=".18"/>
      <stop offset="1" stop-color="#ffffff" stop-opacity=".44"/>
    </linearGradient>
    <filter id="shadow" x="-30%" y="-10%" width="160%" height="130%">
      <feDropShadow dx="0" dy="30" stdDeviation="22" flood-color="#000" flood-opacity=".4"/>
    </filter>
  </defs>
  <rect width="520" height="920" fill="none"/>
  <g filter="url(#shadow)">
    <rect x="142" y="50" width="236" height="230" rx="50" fill="url(#clearCap)" stroke="#f5ffff" stroke-opacity=".38" stroke-width="4"/>
    <rect x="218" y="104" width="84" height="136" rx="22" fill="#050505"/>
    <rect x="168" y="236" width="184" height="66" rx="24" fill="#0a0a0a"/>
    <rect x="126" y="278" width="268" height="562" rx="44" fill="url(#blackBody)"/>
    <path d="M337 300c34 110 32 360-8 500" fill="none" stroke="#fff" stroke-width="34" stroke-linecap="round" opacity=".08"/>
  </g>
  <g fill="#fff">
    <circle cx="260" cy="384" r="32"/>
    <rect x="205" y="430" width="110" height="150" rx="38"/>
    <rect x="170" y="468" width="42" height="128" rx="21"/>
    <rect x="308" y="468" width="42" height="128" rx="21"/>
  </g>
  <g fill="none" stroke="#dfe8e5" stroke-width="6" opacity=".72">
    <path d="M304 445c21-32 57-12 42 24-11 26-42 46-42 46s-32-22-41-49c-10-33 27-43 41-21z"/>
    <path d="M288 508c26-8 48-25 65-52"/>
  </g>
  <text x="260" y="650" text-anchor="middle" fill="#fff" font-family="Arial Black, Impact, sans-serif" font-size="61" font-weight="900" letter-spacing="-2">TATTOO</text>
  <text x="260" y="712" text-anchor="middle" fill="#fff" font-family="Georgia, serif" font-size="54" font-style="italic">Apple</text>
  <rect x="151" y="732" width="218" height="58" fill="none" stroke="#fff" stroke-width="6"/>
  <text x="260" y="773" text-anchor="middle" fill="#fff" font-family="Arial Black, Impact, sans-serif" font-size="43" font-weight="900" letter-spacing="1">T-FOAM</text>
  <text x="260" y="834" text-anchor="middle" fill="#cf3032" font-family="Arial, sans-serif" font-size="33" font-weight="700">Mild Cleansing</text>
  <text x="260" y="872" text-anchor="middle" fill="#cf3032" font-family="Arial, sans-serif" font-size="33" font-weight="700">Mousse</text>
</svg>
